M48
;GenerationSoftware,Autodesk,EAGLE,9.7.0*%
;CreationDate,2022-11-10T15:43:38Z*%
FMAT,2
ICI,OFF
METRIC,TZ,000.000
T7C0.600
T6C0.800
T5C0.813
T4C0.900
T3C1.100
T2C1.321
T1C3.429
%
G90
M71
T1
X152146Y131318
X152362Y3873
X330Y3962
X254Y131483
T2
X138430Y37465
X114681Y23241
X126619Y23241
X114681Y35433
X31750Y37465
X25781Y35433
X37719Y23241
X25781Y23241
X13970Y37465
X120650Y37465
X19939Y35433
X19939Y23241
X8001Y35433
X8001Y23241
X126619Y35433
X37719Y35433
X132461Y35433
X144399Y35433
X144399Y23241
X132461Y23241
X102870Y37465
X96901Y35433
X108839Y35433
X108839Y23241
X96901Y23241
X85090Y37465
X79121Y35433
X91059Y35433
X91059Y23241
X79121Y23241
X67310Y37465
X61341Y35433
X73279Y35433
X73279Y23241
X61341Y23241
X49530Y37465
X43561Y35433
X55499Y35433
X55499Y23241
X43561Y23241
T3
X67310Y11430
X62310Y11430
X54530Y11430
X49530Y11430
X44530Y11430
X31750Y11430
X26750Y11430
X18970Y11430
X13970Y11430
X8970Y11430
X136375Y124442
X141375Y124442
X119103Y124188
X124103Y124188
X101323Y124188
X106323Y124188
X83543Y124188
X88543Y124188
X65763Y124188
X70763Y124188
X36750Y11430
X52983Y124188
X30203Y124188
X35203Y124188
X12423Y124188
X17423Y124188
X11430Y77430
X11430Y72430
X143430Y11430
X138430Y11430
X133430Y11430
X125650Y11430
X120650Y11430
X115650Y11430
X90090Y11430
X47983Y124188
X32800Y81280
X43400Y81280
X133130Y53340
X143730Y53340
X115604Y53340
X126204Y53340
X108170Y53340
X79790Y53340
X90390Y53340
X62010Y53340
X72610Y53340
X44230Y53340
X54830Y53340
X26450Y53340
X37050Y53340
X8670Y53340
X19270Y53340
X97570Y53340
X107870Y11430
X102870Y11430
X97870Y11430
X85090Y11430
X80090Y11430
X72310Y11430
T4
X26670Y48260
X134519Y45466
X136424Y46736
X134519Y48006
X116027Y45669
X117932Y46939
X116027Y48209
X97790Y45720
X99695Y46990
X97790Y48260
X80010Y45720
X81915Y46990
X80010Y48260
X62230Y45720
X64135Y46990
X62230Y48260
X44450Y45720
X46355Y46990
X44450Y48260
X26670Y45720
X28575Y46990
X8890Y45720
X10795Y46990
X8890Y48260
T5
X48260Y110490
X48260Y107950
X30480Y110490
X30480Y107950
X11430Y110490
X11430Y107950
X142748Y48006
X142748Y45466
X124206Y48260
X124206Y45720
X106680Y48260
X106680Y45720
X88900Y48260
X88900Y45720
X71120Y48260
X71120Y45720
X53340Y48260
X53340Y45720
X35560Y48260
X35560Y45720
X17780Y48260
X17780Y45720
X140970Y97790
X140970Y100330
X133350Y100330
X133350Y97790
X123190Y97790
X123190Y100330
X115570Y100330
X115570Y97790
X105410Y97790
X105410Y100330
X97790Y100330
X97790Y97790
X87630Y97790
X87630Y100330
X80010Y100330
X80010Y97790
X69850Y97790
X69850Y100330
X62230Y100330
X62230Y97790
X52070Y97790
X52070Y100330
X44450Y100330
X44450Y97790
X34290Y97790
X34290Y100330
X26670Y100330
X26670Y97790
X15240Y97790
X15240Y100330
X7620Y100330
X7620Y97790
X93980Y57150
X93980Y41910
X76200Y57150
X76200Y41910
X58420Y57150
X58420Y41910
X40640Y57150
X40640Y41910
X22860Y57150
X22860Y41910
X130218Y114464
X145458Y114464
X144780Y96520
X144780Y111760
X129540Y111760
X129540Y96520
X112438Y114464
X127678Y114464
X127000Y96520
X127000Y111760
X111760Y111760
X111760Y96520
X94658Y114464
X109898Y114464
X109220Y96520
X109220Y111760
X93980Y111760
X93980Y96520
X76878Y114464
X92118Y114464
X91440Y96520
X91440Y111760
X76200Y111760
X76200Y96520
X59098Y114464
X74338Y114464
X73660Y96520
X73660Y111760
X58420Y111760
X58420Y96520
X41318Y114464
X56558Y114464
X55880Y96520
X55880Y111760
X40640Y111760
X40640Y96520
X23538Y114464
X38778Y114464
X38100Y96520
X38100Y111760
X22860Y111760
X5758Y114464
X20998Y114464
X19050Y96520
X19050Y111760
X3810Y111760
X3810Y96520
X52070Y87630
X39370Y87630
X46990Y62230
X46990Y74930
X50800Y62230
X50800Y74930
X147320Y57150
X147320Y41910
X129540Y57150
X129540Y41910
X111760Y57150
X111760Y41910
X39370Y64770
X39370Y62230
X34290Y68580
X36830Y68580
X39370Y68580
X41910Y68580
X41910Y76200
X39370Y76200
X36830Y76200
X34290Y76200
X137160Y110490
X137160Y107950
X119380Y110490
X119380Y107950
X101600Y110490
X101600Y107950
X83820Y110490
X22860Y96520
X83820Y107950
X66040Y110490
X66040Y107950
T6
X138430Y81280
X125730Y81280
X114300Y76200
X114300Y73660
X115570Y66040
X118110Y66040
X120650Y66040
X123190Y66040
X125730Y66040
X128270Y66040
X130810Y66040
X133350Y66040
X135890Y66040
X138430Y66040
X140970Y66040
X143510Y66040
X115570Y81280
X118110Y81280
X120650Y81280
X135890Y81280
X114300Y71120
X140970Y81280
X143510Y81280
X151130Y81280
X151130Y66040
X148590Y66040
X146050Y66040
X148590Y81280
X146050Y81280
X123190Y81280
X116840Y76200
X116840Y73660
X116840Y71120
X133350Y81280
X130810Y81280
X128270Y81280
T7
X55880Y67830
X55880Y69330
X55880Y80760
X55880Y79260
M30