G04 EAGLE Gerber RS-274X export*
G75*
%MOMM*%
%FSLAX34Y34*%
%LPD*%
%INTop Copper*%
%IPPOS*%
%AMOC8*
5,1,8,0,0,1.08239X$1,22.5*%
G01*
G04 Define Apertures*
%ADD10C,1.108000*%
%ADD11R,1.108000X1.108000*%
%ADD12P,1.73204X8X292.5*%
%ADD13C,1.650000*%
%ADD14R,1.650000X1.650000*%
%ADD15C,1.320800*%
%ADD16C,1.981200*%
%ADD17C,0.380000*%
%ADD18P,1.42962X8X292.5*%
%ADD19P,1.42962X8X22.5*%
%ADD20P,1.42962X8X112.5*%
%ADD21P,1.42962X8X202.5*%
%ADD22C,1.930400*%
%ADD23C,1.308000*%
%ADD24C,1.308000*%
%ADD25C,0.304800*%
%ADD26C,0.254000*%
D10*
X558800Y693300D03*
D11*
X558800Y678300D03*
D10*
X558800Y792600D03*
D11*
X558800Y807600D03*
D12*
X393700Y647700D03*
X393700Y622300D03*
D13*
X328000Y812800D03*
D14*
X434000Y812800D03*
D13*
X1331300Y533400D03*
D14*
X1437300Y533400D03*
D13*
X1156040Y533400D03*
D14*
X1262040Y533400D03*
D13*
X975700Y533400D03*
D14*
X1081700Y533400D03*
D13*
X797900Y533400D03*
D14*
X903900Y533400D03*
D13*
X620100Y533400D03*
D14*
X726100Y533400D03*
D13*
X442300Y533400D03*
D14*
X548300Y533400D03*
D13*
X264500Y533400D03*
D14*
X370500Y533400D03*
D13*
X86700Y533400D03*
D14*
X192700Y533400D03*
D15*
X342900Y679196D02*
X342900Y692404D01*
X368300Y692404D02*
X368300Y679196D01*
X393700Y679196D02*
X393700Y692404D01*
X419100Y692404D02*
X419100Y679196D01*
X419100Y755396D02*
X419100Y768604D01*
X393700Y768604D02*
X393700Y755396D01*
X368300Y755396D02*
X368300Y768604D01*
X342900Y768604D02*
X342900Y755396D01*
D14*
X1078700Y114300D03*
D13*
X1028700Y114300D03*
X978700Y114300D03*
D14*
X900900Y114300D03*
D13*
X850900Y114300D03*
X800900Y114300D03*
D14*
X723100Y114300D03*
D13*
X673100Y114300D03*
X623100Y114300D03*
D14*
X545300Y114300D03*
D13*
X495300Y114300D03*
X445300Y114300D03*
D14*
X367500Y114300D03*
D13*
X317500Y114300D03*
X267500Y114300D03*
D14*
X189700Y114300D03*
D13*
X139700Y114300D03*
X89700Y114300D03*
D14*
X1363745Y1244420D03*
D13*
X1413745Y1244420D03*
D14*
X1191025Y1241880D03*
D13*
X1241025Y1241880D03*
D14*
X1013225Y1241880D03*
D13*
X1063225Y1241880D03*
D14*
X835425Y1241880D03*
D13*
X885425Y1241880D03*
D14*
X657625Y1241880D03*
D13*
X707625Y1241880D03*
D14*
X479825Y1241880D03*
D13*
X529825Y1241880D03*
D14*
X302025Y1241880D03*
D13*
X352025Y1241880D03*
D14*
X124225Y1241880D03*
D13*
X174225Y1241880D03*
D14*
X114300Y774300D03*
D13*
X114300Y724300D03*
D14*
X1434300Y114300D03*
D13*
X1384300Y114300D03*
X1334300Y114300D03*
D14*
X1256500Y114300D03*
D13*
X1206500Y114300D03*
X1156500Y114300D03*
D16*
X1206500Y364744D02*
X1206500Y384556D01*
X1146810Y364236D02*
X1146810Y344424D01*
X1266190Y344424D02*
X1266190Y364236D01*
X1266190Y242316D02*
X1266190Y222504D01*
X1146810Y222504D02*
X1146810Y242316D01*
X1384300Y364744D02*
X1384300Y384556D01*
X1324610Y364236D02*
X1324610Y344424D01*
X1443990Y344424D02*
X1443990Y364236D01*
X1443990Y242316D02*
X1443990Y222504D01*
X1324610Y222504D02*
X1324610Y242316D01*
X1028700Y364744D02*
X1028700Y384556D01*
X969010Y364236D02*
X969010Y344424D01*
X1088390Y344424D02*
X1088390Y364236D01*
X1088390Y242316D02*
X1088390Y222504D01*
X969010Y222504D02*
X969010Y242316D01*
X850900Y364744D02*
X850900Y384556D01*
X791210Y364236D02*
X791210Y344424D01*
X910590Y344424D02*
X910590Y364236D01*
X910590Y242316D02*
X910590Y222504D01*
X791210Y222504D02*
X791210Y242316D01*
X673100Y364744D02*
X673100Y384556D01*
X613410Y364236D02*
X613410Y344424D01*
X732790Y344424D02*
X732790Y364236D01*
X732790Y242316D02*
X732790Y222504D01*
X613410Y222504D02*
X613410Y242316D01*
X495300Y364744D02*
X495300Y384556D01*
X435610Y364236D02*
X435610Y344424D01*
X554990Y344424D02*
X554990Y364236D01*
X554990Y242316D02*
X554990Y222504D01*
X435610Y222504D02*
X435610Y242316D01*
X317500Y364744D02*
X317500Y384556D01*
X257810Y364236D02*
X257810Y344424D01*
X377190Y344424D02*
X377190Y364236D01*
X377190Y242316D02*
X377190Y222504D01*
X257810Y222504D02*
X257810Y242316D01*
X139700Y364744D02*
X139700Y384556D01*
X80010Y364236D02*
X80010Y344424D01*
X199390Y344424D02*
X199390Y364236D01*
X199390Y242316D02*
X199390Y222504D01*
X80010Y222504D02*
X80010Y242316D01*
D17*
X218400Y741600D02*
X289600Y741600D01*
X289600Y726400D01*
X218400Y726400D01*
X218400Y741600D01*
X218400Y730010D02*
X289600Y730010D01*
X289600Y733620D02*
X218400Y733620D01*
X218400Y737230D02*
X289600Y737230D01*
X289600Y740840D02*
X218400Y740840D01*
X218400Y797600D02*
X289600Y797600D01*
X289600Y782400D01*
X218400Y782400D01*
X218400Y797600D01*
X218400Y786010D02*
X289600Y786010D01*
X289600Y789620D02*
X218400Y789620D01*
X218400Y793230D02*
X289600Y793230D01*
X289600Y796840D02*
X218400Y796840D01*
D18*
X1371600Y1104900D03*
X1371600Y1079500D03*
X1193800Y1104900D03*
X1193800Y1079500D03*
X1016000Y1104900D03*
X1016000Y1079500D03*
X838200Y1104900D03*
X838200Y1079500D03*
X660400Y1104900D03*
X660400Y1079500D03*
X482600Y1104900D03*
X482600Y1079500D03*
X304800Y1104900D03*
X304800Y1079500D03*
X114300Y1104900D03*
X114300Y1079500D03*
X1427480Y480060D03*
X1427480Y454660D03*
X1242060Y482600D03*
X1242060Y457200D03*
X1066800Y482600D03*
X1066800Y457200D03*
X889000Y482600D03*
X889000Y457200D03*
X711200Y482600D03*
X711200Y457200D03*
X533400Y482600D03*
X533400Y457200D03*
X355600Y482600D03*
X355600Y457200D03*
X177800Y482600D03*
X177800Y457200D03*
D15*
X1409700Y977900D02*
X1422908Y977900D01*
X1422908Y1003300D02*
X1409700Y1003300D01*
X1333500Y1003300D02*
X1320292Y1003300D01*
X1320292Y977900D02*
X1333500Y977900D01*
X1245108Y977900D02*
X1231900Y977900D01*
X1231900Y1003300D02*
X1245108Y1003300D01*
X1155700Y1003300D02*
X1142492Y1003300D01*
X1142492Y977900D02*
X1155700Y977900D01*
X1067308Y977900D02*
X1054100Y977900D01*
X1054100Y1003300D02*
X1067308Y1003300D01*
X977900Y1003300D02*
X964692Y1003300D01*
X964692Y977900D02*
X977900Y977900D01*
X889508Y977900D02*
X876300Y977900D01*
X876300Y1003300D02*
X889508Y1003300D01*
X800100Y1003300D02*
X786892Y1003300D01*
X786892Y977900D02*
X800100Y977900D01*
X711708Y977900D02*
X698500Y977900D01*
X698500Y1003300D02*
X711708Y1003300D01*
X622300Y1003300D02*
X609092Y1003300D01*
X609092Y977900D02*
X622300Y977900D01*
X533908Y977900D02*
X520700Y977900D01*
X520700Y1003300D02*
X533908Y1003300D01*
X444500Y1003300D02*
X431292Y1003300D01*
X431292Y977900D02*
X444500Y977900D01*
X356108Y977900D02*
X342900Y977900D01*
X342900Y1003300D02*
X356108Y1003300D01*
X266700Y1003300D02*
X253492Y1003300D01*
X253492Y977900D02*
X266700Y977900D01*
X165608Y977900D02*
X152400Y977900D01*
X152400Y1003300D02*
X165608Y1003300D01*
X76200Y1003300D02*
X62992Y1003300D01*
X62992Y977900D02*
X76200Y977900D01*
D18*
X939800Y571500D03*
X939800Y419100D03*
X762000Y571500D03*
X762000Y419100D03*
X584200Y571500D03*
X584200Y419100D03*
X406400Y571500D03*
X406400Y419100D03*
X228600Y571500D03*
X228600Y419100D03*
D19*
X1302177Y1144642D03*
X1454577Y1144642D03*
D20*
X1447800Y965200D03*
X1447800Y1117600D03*
D18*
X1295400Y1117600D03*
X1295400Y965200D03*
D19*
X1124377Y1144642D03*
X1276777Y1144642D03*
D20*
X1270000Y965200D03*
X1270000Y1117600D03*
D18*
X1117600Y1117600D03*
X1117600Y965200D03*
D19*
X946577Y1144642D03*
X1098977Y1144642D03*
D20*
X1092200Y965200D03*
X1092200Y1117600D03*
D18*
X939800Y1117600D03*
X939800Y965200D03*
D19*
X768777Y1144642D03*
X921177Y1144642D03*
D20*
X914400Y965200D03*
X914400Y1117600D03*
D18*
X762000Y1117600D03*
X762000Y965200D03*
D19*
X590977Y1144642D03*
X743377Y1144642D03*
D20*
X736600Y965200D03*
X736600Y1117600D03*
D18*
X584200Y1117600D03*
X584200Y965200D03*
D19*
X413177Y1144642D03*
X565577Y1144642D03*
D20*
X558800Y965200D03*
X558800Y1117600D03*
D18*
X406400Y1117600D03*
X406400Y965200D03*
D19*
X235377Y1144642D03*
X387777Y1144642D03*
D20*
X381000Y965200D03*
X381000Y1117600D03*
D18*
X228600Y1117600D03*
X228600Y965200D03*
D19*
X57577Y1144642D03*
X209977Y1144642D03*
D20*
X190500Y965200D03*
X190500Y1117600D03*
D18*
X38100Y1117600D03*
X38100Y965200D03*
D21*
X520700Y876300D03*
X393700Y876300D03*
D20*
X469900Y622300D03*
X469900Y749300D03*
X508000Y622300D03*
X508000Y749300D03*
D18*
X1473200Y571500D03*
X1473200Y419100D03*
X1295400Y571500D03*
X1295400Y419100D03*
X1117600Y571500D03*
X1117600Y419100D03*
D22*
X1345185Y454660D03*
X1364235Y467360D03*
X1345185Y480060D03*
X1160273Y456693D03*
X1179323Y469393D03*
X1160273Y482093D03*
X977900Y457200D03*
X996950Y469900D03*
X977900Y482600D03*
X800100Y457200D03*
X819150Y469900D03*
X800100Y482600D03*
X622300Y457200D03*
X641350Y469900D03*
X622300Y482600D03*
X444500Y457200D03*
X463550Y469900D03*
X444500Y482600D03*
X266700Y457200D03*
X285750Y469900D03*
X266700Y482600D03*
X88900Y457200D03*
X107950Y469900D03*
X88900Y482600D03*
D23*
X1155700Y653860D02*
X1155700Y666940D01*
X1181100Y666940D02*
X1181100Y653860D01*
X1206500Y653860D02*
X1206500Y666940D01*
X1231900Y666940D02*
X1231900Y653860D01*
X1257300Y653860D02*
X1257300Y666940D01*
X1282700Y666940D02*
X1282700Y653860D01*
X1308100Y653860D02*
X1308100Y666940D01*
X1333500Y666940D02*
X1333500Y653860D01*
X1358900Y653860D02*
X1358900Y666940D01*
X1384300Y666940D02*
X1384300Y653860D01*
X1409700Y653860D02*
X1409700Y666940D01*
X1435100Y666940D02*
X1435100Y653860D01*
X1155700Y806260D02*
X1155700Y819340D01*
X1181100Y819340D02*
X1181100Y806260D01*
X1206500Y806260D02*
X1206500Y819340D01*
X1358900Y819340D02*
X1358900Y806260D01*
X1384300Y806260D02*
X1384300Y819340D01*
X1409700Y819340D02*
X1409700Y806260D01*
X1435100Y806260D02*
X1435100Y819340D01*
X1511300Y819340D02*
X1511300Y806260D01*
X1511300Y666940D02*
X1511300Y653860D01*
X1485900Y653860D02*
X1485900Y666940D01*
X1460500Y666940D02*
X1460500Y653860D01*
X1485900Y806260D02*
X1485900Y819340D01*
X1460500Y819340D02*
X1460500Y806260D01*
X1231900Y806260D02*
X1231900Y819340D01*
D24*
X1168400Y762000D03*
X1168400Y736600D03*
X1168400Y711200D03*
D23*
X1333500Y806260D02*
X1333500Y819340D01*
X1308100Y819340D02*
X1308100Y806260D01*
X1282700Y806260D02*
X1282700Y819340D01*
X1257300Y819340D02*
X1257300Y806260D01*
D24*
X1143000Y762000D03*
X1143000Y736600D03*
X1143000Y711200D03*
D25*
X1216900Y736600D02*
X1155700Y797800D01*
X1155700Y812800D01*
D26*
X254000Y734000D02*
X251460Y736540D01*
X177860Y736540D01*
X165100Y749300D01*
X81200Y749300D01*
X81200Y617300D01*
X165100Y533400D01*
X192700Y533400D01*
X1117600Y1117600D02*
X1181100Y1054100D01*
X1257300Y1054100D01*
X1295400Y1092200D01*
X1295400Y1117600D01*
X1371600Y1041400D01*
X1435100Y1041400D02*
X1473200Y1003300D01*
X1435100Y1041400D02*
X1371600Y1041400D01*
X1117600Y1092200D02*
X1117600Y1117600D01*
X1117600Y1092200D02*
X1079500Y1054100D01*
X977900Y1054100D01*
X939800Y1092200D01*
X939800Y1117600D01*
X939800Y1092200D02*
X914400Y1092200D01*
X876300Y1054100D01*
X812800Y1054100D01*
X774700Y1092200D01*
X762000Y1104900D01*
X762000Y1117600D01*
X774700Y1092200D02*
X736600Y1054100D01*
X622300Y1054100D02*
X584200Y1092200D01*
X584200Y1117600D01*
X622300Y1054100D02*
X736600Y1054100D01*
X584200Y1092200D02*
X546100Y1054100D01*
X419100Y1054100D02*
X406400Y1066800D01*
X406400Y1117600D01*
X419100Y1054100D02*
X546100Y1054100D01*
X406400Y1066800D02*
X393700Y1054100D01*
X266700Y1054100D01*
X228600Y1092200D01*
X228600Y1117600D01*
X228600Y1092200D02*
X177800Y1041400D01*
X116600Y1041400D01*
X40400Y1117600D01*
X38100Y1117600D01*
X1081700Y764200D02*
X1081700Y533400D01*
X1081700Y764200D02*
X1130300Y812800D01*
X1155700Y812800D01*
X688340Y589280D02*
X548640Y589280D01*
X547200Y589280D01*
X688340Y589280D02*
X726100Y551520D01*
X726100Y533400D01*
X514180Y622300D02*
X508000Y622300D01*
X514180Y622300D02*
X547200Y589280D01*
X548640Y589280D02*
X548640Y533740D01*
X548300Y533400D01*
D25*
X1473200Y1003300D02*
X1536206Y940294D01*
X1480200Y736600D02*
X1216900Y736600D01*
X1480200Y736600D02*
X1536206Y792607D01*
X1536206Y940294D01*
D26*
X1360425Y495300D02*
X1345185Y480060D01*
X1360425Y495300D02*
X1384300Y495300D01*
X1394460Y485140D01*
X1394460Y421640D01*
X1397000Y419100D01*
X1427480Y419100D01*
X1443990Y402590D01*
X1443990Y354330D01*
X1173480Y495300D02*
X1160273Y482093D01*
X1173480Y495300D02*
X1201420Y495300D01*
X1211580Y485140D01*
X1211580Y429260D01*
X1226820Y414020D01*
X1254760Y414020D01*
X1266190Y402590D01*
X1266190Y354330D01*
X990600Y495300D02*
X977900Y482600D01*
X990600Y495300D02*
X1016000Y495300D01*
X1028700Y482600D01*
X1028700Y431800D01*
X1041400Y419100D01*
X1079500Y419100D01*
X1088390Y410210D01*
X1088390Y354330D01*
X812800Y495300D02*
X800100Y482600D01*
X812800Y495300D02*
X838200Y495300D01*
X850900Y482600D01*
X850900Y431800D01*
X863600Y419100D01*
X901700Y419100D01*
X910590Y410210D01*
X910590Y354330D01*
X635000Y495300D02*
X622300Y482600D01*
X635000Y495300D02*
X660400Y495300D01*
X673100Y482600D01*
X673100Y431800D01*
X685800Y419100D01*
X723900Y419100D01*
X732790Y410210D01*
X732790Y354330D01*
X457200Y495300D02*
X444500Y482600D01*
X457200Y495300D02*
X482600Y495300D01*
X495300Y482600D01*
X495300Y431800D01*
X508000Y419100D01*
X546100Y419100D01*
X554990Y410210D01*
X554990Y354330D01*
X279400Y495300D02*
X266700Y482600D01*
X279400Y495300D02*
X304800Y495300D01*
X317500Y482600D01*
X317500Y431800D01*
X330200Y419100D01*
X368300Y419100D01*
X377190Y410210D01*
X377190Y354330D01*
X101600Y495300D02*
X88900Y482600D01*
X101600Y495300D02*
X127000Y495300D01*
X139700Y482600D01*
X139700Y431800D01*
X152400Y419100D01*
X190500Y419100D01*
X199390Y410210D01*
X199390Y354330D01*
D25*
X1054100Y977900D02*
X1079500Y977900D01*
X1092200Y965200D01*
X977900Y977900D02*
X977900Y927100D01*
X1016000Y889000D01*
X1333500Y889000D01*
X1384300Y838200D01*
X1384300Y812800D01*
X952500Y977900D02*
X939800Y965200D01*
X952500Y977900D02*
X977900Y977900D01*
X901700Y977900D02*
X876300Y977900D01*
X901700Y977900D02*
X914400Y965200D01*
X800100Y977900D02*
X800100Y901700D01*
X825500Y876300D01*
X1320800Y876300D01*
X1358900Y838200D01*
X1358900Y812800D01*
X800100Y977900D02*
X787400Y965200D01*
X762000Y965200D01*
X736600Y965200D02*
X711200Y965200D01*
X698500Y977900D01*
X622300Y977900D02*
X622300Y876300D01*
X635000Y863600D01*
X1295400Y863600D01*
X1333500Y825500D01*
X1333500Y812800D01*
X622300Y850900D02*
X515620Y957580D01*
X464820Y957580D01*
X444500Y977900D01*
X622300Y850900D02*
X1282700Y850900D01*
X1308100Y825500D01*
X1308100Y812800D01*
X335280Y909320D02*
X266700Y977900D01*
X335280Y909320D02*
X538480Y909320D01*
X609600Y838200D01*
X1270000Y838200D01*
X1282700Y825500D01*
X1282700Y812800D01*
X254000Y790000D02*
X254000Y838200D01*
X266700Y850900D01*
X395900Y850900D02*
X434000Y812800D01*
X395900Y850900D02*
X266700Y850900D01*
D26*
X419100Y762000D02*
X457200Y762000D01*
X469900Y749300D01*
D25*
X140100Y698500D02*
X114300Y724300D01*
X140100Y698500D02*
X228600Y698500D01*
X292100Y698500D01*
X317500Y723900D01*
X368300Y723900D01*
X393700Y749300D01*
X393700Y762000D01*
D26*
X431800Y457200D02*
X444500Y457200D01*
X431800Y457200D02*
X406400Y482600D01*
X406400Y546100D01*
X469900Y609600D02*
X469900Y622300D01*
X469900Y609600D02*
X406400Y546100D01*
X114300Y774300D02*
X114300Y977900D01*
X88900Y1003300D01*
X76200Y1003300D01*
X469900Y623570D02*
X469900Y622300D01*
X469900Y623570D02*
X469900Y647700D01*
X515500Y693300D01*
X558800Y693300D01*
X419100Y685800D02*
X419100Y656463D01*
X451993Y623570D01*
X469900Y623570D01*
M02*
