G04 EAGLE Gerber RS-274X export*
G75*
%MOMM*%
%FSLAX34Y34*%
%LPD*%
%INBottom Copper*%
%IPPOS*%
%AMOC8*
5,1,8,0,0,1.08239X$1,22.5*%
G01*
G04 Define Apertures*
%ADD10C,1.108000*%
%ADD11R,1.108000X1.108000*%
%ADD12P,1.73204X8X292.5*%
%ADD13C,1.650000*%
%ADD14R,1.650000X1.650000*%
%ADD15C,1.320800*%
%ADD16C,1.981200*%
%ADD17P,1.42962X8X292.5*%
%ADD18P,1.42962X8X22.5*%
%ADD19P,1.42962X8X112.5*%
%ADD20P,1.42962X8X202.5*%
%ADD21C,1.930400*%
%ADD22C,1.308000*%
%ADD23C,1.308000*%
%ADD24C,0.304800*%
%ADD25C,0.254000*%
D10*
X558800Y693300D03*
D11*
X558800Y678300D03*
D10*
X558800Y792600D03*
D11*
X558800Y807600D03*
D12*
X393700Y647700D03*
X393700Y622300D03*
D13*
X328000Y812800D03*
D14*
X434000Y812800D03*
D13*
X1331300Y533400D03*
D14*
X1437300Y533400D03*
D13*
X1156040Y533400D03*
D14*
X1262040Y533400D03*
D13*
X975700Y533400D03*
D14*
X1081700Y533400D03*
D13*
X797900Y533400D03*
D14*
X903900Y533400D03*
D13*
X620100Y533400D03*
D14*
X726100Y533400D03*
D13*
X442300Y533400D03*
D14*
X548300Y533400D03*
D13*
X264500Y533400D03*
D14*
X370500Y533400D03*
D13*
X86700Y533400D03*
D14*
X192700Y533400D03*
D15*
X342900Y679196D02*
X342900Y692404D01*
X368300Y692404D02*
X368300Y679196D01*
X393700Y679196D02*
X393700Y692404D01*
X419100Y692404D02*
X419100Y679196D01*
X419100Y755396D02*
X419100Y768604D01*
X393700Y768604D02*
X393700Y755396D01*
X368300Y755396D02*
X368300Y768604D01*
X342900Y768604D02*
X342900Y755396D01*
D14*
X1078700Y114300D03*
D13*
X1028700Y114300D03*
X978700Y114300D03*
D14*
X900900Y114300D03*
D13*
X850900Y114300D03*
X800900Y114300D03*
D14*
X723100Y114300D03*
D13*
X673100Y114300D03*
X623100Y114300D03*
D14*
X545300Y114300D03*
D13*
X495300Y114300D03*
X445300Y114300D03*
D14*
X367500Y114300D03*
D13*
X317500Y114300D03*
X267500Y114300D03*
D14*
X189700Y114300D03*
D13*
X139700Y114300D03*
X89700Y114300D03*
D14*
X1363745Y1244420D03*
D13*
X1413745Y1244420D03*
D14*
X1191025Y1241880D03*
D13*
X1241025Y1241880D03*
D14*
X1013225Y1241880D03*
D13*
X1063225Y1241880D03*
D14*
X835425Y1241880D03*
D13*
X885425Y1241880D03*
D14*
X657625Y1241880D03*
D13*
X707625Y1241880D03*
D14*
X479825Y1241880D03*
D13*
X529825Y1241880D03*
D14*
X302025Y1241880D03*
D13*
X352025Y1241880D03*
D14*
X124225Y1241880D03*
D13*
X174225Y1241880D03*
D14*
X114300Y774300D03*
D13*
X114300Y724300D03*
D14*
X1434300Y114300D03*
D13*
X1384300Y114300D03*
X1334300Y114300D03*
D14*
X1256500Y114300D03*
D13*
X1206500Y114300D03*
X1156500Y114300D03*
D16*
X1206500Y364744D02*
X1206500Y384556D01*
X1146810Y364236D02*
X1146810Y344424D01*
X1266190Y344424D02*
X1266190Y364236D01*
X1266190Y242316D02*
X1266190Y222504D01*
X1146810Y222504D02*
X1146810Y242316D01*
X1384300Y364744D02*
X1384300Y384556D01*
X1324610Y364236D02*
X1324610Y344424D01*
X1443990Y344424D02*
X1443990Y364236D01*
X1443990Y242316D02*
X1443990Y222504D01*
X1324610Y222504D02*
X1324610Y242316D01*
X1028700Y364744D02*
X1028700Y384556D01*
X969010Y364236D02*
X969010Y344424D01*
X1088390Y344424D02*
X1088390Y364236D01*
X1088390Y242316D02*
X1088390Y222504D01*
X969010Y222504D02*
X969010Y242316D01*
X850900Y364744D02*
X850900Y384556D01*
X791210Y364236D02*
X791210Y344424D01*
X910590Y344424D02*
X910590Y364236D01*
X910590Y242316D02*
X910590Y222504D01*
X791210Y222504D02*
X791210Y242316D01*
X673100Y364744D02*
X673100Y384556D01*
X613410Y364236D02*
X613410Y344424D01*
X732790Y344424D02*
X732790Y364236D01*
X732790Y242316D02*
X732790Y222504D01*
X613410Y222504D02*
X613410Y242316D01*
X495300Y364744D02*
X495300Y384556D01*
X435610Y364236D02*
X435610Y344424D01*
X554990Y344424D02*
X554990Y364236D01*
X554990Y242316D02*
X554990Y222504D01*
X435610Y222504D02*
X435610Y242316D01*
X317500Y364744D02*
X317500Y384556D01*
X257810Y364236D02*
X257810Y344424D01*
X377190Y344424D02*
X377190Y364236D01*
X377190Y242316D02*
X377190Y222504D01*
X257810Y222504D02*
X257810Y242316D01*
X139700Y364744D02*
X139700Y384556D01*
X80010Y364236D02*
X80010Y344424D01*
X199390Y344424D02*
X199390Y364236D01*
X199390Y242316D02*
X199390Y222504D01*
X80010Y222504D02*
X80010Y242316D01*
D17*
X1371600Y1104900D03*
X1371600Y1079500D03*
X1193800Y1104900D03*
X1193800Y1079500D03*
X1016000Y1104900D03*
X1016000Y1079500D03*
X838200Y1104900D03*
X838200Y1079500D03*
X660400Y1104900D03*
X660400Y1079500D03*
X482600Y1104900D03*
X482600Y1079500D03*
X304800Y1104900D03*
X304800Y1079500D03*
X114300Y1104900D03*
X114300Y1079500D03*
X1427480Y480060D03*
X1427480Y454660D03*
X1242060Y482600D03*
X1242060Y457200D03*
X1066800Y482600D03*
X1066800Y457200D03*
X889000Y482600D03*
X889000Y457200D03*
X711200Y482600D03*
X711200Y457200D03*
X533400Y482600D03*
X533400Y457200D03*
X355600Y482600D03*
X355600Y457200D03*
X177800Y482600D03*
X177800Y457200D03*
D15*
X1409700Y977900D02*
X1422908Y977900D01*
X1422908Y1003300D02*
X1409700Y1003300D01*
X1333500Y1003300D02*
X1320292Y1003300D01*
X1320292Y977900D02*
X1333500Y977900D01*
X1245108Y977900D02*
X1231900Y977900D01*
X1231900Y1003300D02*
X1245108Y1003300D01*
X1155700Y1003300D02*
X1142492Y1003300D01*
X1142492Y977900D02*
X1155700Y977900D01*
X1067308Y977900D02*
X1054100Y977900D01*
X1054100Y1003300D02*
X1067308Y1003300D01*
X977900Y1003300D02*
X964692Y1003300D01*
X964692Y977900D02*
X977900Y977900D01*
X889508Y977900D02*
X876300Y977900D01*
X876300Y1003300D02*
X889508Y1003300D01*
X800100Y1003300D02*
X786892Y1003300D01*
X786892Y977900D02*
X800100Y977900D01*
X711708Y977900D02*
X698500Y977900D01*
X698500Y1003300D02*
X711708Y1003300D01*
X622300Y1003300D02*
X609092Y1003300D01*
X609092Y977900D02*
X622300Y977900D01*
X533908Y977900D02*
X520700Y977900D01*
X520700Y1003300D02*
X533908Y1003300D01*
X444500Y1003300D02*
X431292Y1003300D01*
X431292Y977900D02*
X444500Y977900D01*
X356108Y977900D02*
X342900Y977900D01*
X342900Y1003300D02*
X356108Y1003300D01*
X266700Y1003300D02*
X253492Y1003300D01*
X253492Y977900D02*
X266700Y977900D01*
X165608Y977900D02*
X152400Y977900D01*
X152400Y1003300D02*
X165608Y1003300D01*
X76200Y1003300D02*
X62992Y1003300D01*
X62992Y977900D02*
X76200Y977900D01*
D17*
X939800Y571500D03*
X939800Y419100D03*
X762000Y571500D03*
X762000Y419100D03*
X584200Y571500D03*
X584200Y419100D03*
X406400Y571500D03*
X406400Y419100D03*
X228600Y571500D03*
X228600Y419100D03*
D18*
X1302177Y1144642D03*
X1454577Y1144642D03*
D19*
X1447800Y965200D03*
X1447800Y1117600D03*
D17*
X1295400Y1117600D03*
X1295400Y965200D03*
D18*
X1124377Y1144642D03*
X1276777Y1144642D03*
D19*
X1270000Y965200D03*
X1270000Y1117600D03*
D17*
X1117600Y1117600D03*
X1117600Y965200D03*
D18*
X946577Y1144642D03*
X1098977Y1144642D03*
D19*
X1092200Y965200D03*
X1092200Y1117600D03*
D17*
X939800Y1117600D03*
X939800Y965200D03*
D18*
X768777Y1144642D03*
X921177Y1144642D03*
D19*
X914400Y965200D03*
X914400Y1117600D03*
D17*
X762000Y1117600D03*
X762000Y965200D03*
D18*
X590977Y1144642D03*
X743377Y1144642D03*
D19*
X736600Y965200D03*
X736600Y1117600D03*
D17*
X584200Y1117600D03*
X584200Y965200D03*
D18*
X413177Y1144642D03*
X565577Y1144642D03*
D19*
X558800Y965200D03*
X558800Y1117600D03*
D17*
X406400Y1117600D03*
X406400Y965200D03*
D18*
X235377Y1144642D03*
X387777Y1144642D03*
D19*
X381000Y965200D03*
X381000Y1117600D03*
D17*
X228600Y1117600D03*
X228600Y965200D03*
D18*
X57577Y1144642D03*
X209977Y1144642D03*
D19*
X190500Y965200D03*
X190500Y1117600D03*
D17*
X38100Y1117600D03*
X38100Y965200D03*
D20*
X520700Y876300D03*
X393700Y876300D03*
D19*
X469900Y622300D03*
X469900Y749300D03*
X508000Y622300D03*
X508000Y749300D03*
D17*
X1473200Y571500D03*
X1473200Y419100D03*
X1295400Y571500D03*
X1295400Y419100D03*
X1117600Y571500D03*
X1117600Y419100D03*
D21*
X1345185Y454660D03*
X1364235Y467360D03*
X1345185Y480060D03*
X1160273Y456693D03*
X1179323Y469393D03*
X1160273Y482093D03*
X977900Y457200D03*
X996950Y469900D03*
X977900Y482600D03*
X800100Y457200D03*
X819150Y469900D03*
X800100Y482600D03*
X622300Y457200D03*
X641350Y469900D03*
X622300Y482600D03*
X444500Y457200D03*
X463550Y469900D03*
X444500Y482600D03*
X266700Y457200D03*
X285750Y469900D03*
X266700Y482600D03*
X88900Y457200D03*
X107950Y469900D03*
X88900Y482600D03*
D22*
X1155700Y653860D02*
X1155700Y666940D01*
X1181100Y666940D02*
X1181100Y653860D01*
X1206500Y653860D02*
X1206500Y666940D01*
X1231900Y666940D02*
X1231900Y653860D01*
X1257300Y653860D02*
X1257300Y666940D01*
X1282700Y666940D02*
X1282700Y653860D01*
X1308100Y653860D02*
X1308100Y666940D01*
X1333500Y666940D02*
X1333500Y653860D01*
X1358900Y653860D02*
X1358900Y666940D01*
X1384300Y666940D02*
X1384300Y653860D01*
X1409700Y653860D02*
X1409700Y666940D01*
X1435100Y666940D02*
X1435100Y653860D01*
X1155700Y806260D02*
X1155700Y819340D01*
X1181100Y819340D02*
X1181100Y806260D01*
X1206500Y806260D02*
X1206500Y819340D01*
X1358900Y819340D02*
X1358900Y806260D01*
X1384300Y806260D02*
X1384300Y819340D01*
X1409700Y819340D02*
X1409700Y806260D01*
X1435100Y806260D02*
X1435100Y819340D01*
X1511300Y819340D02*
X1511300Y806260D01*
X1511300Y666940D02*
X1511300Y653860D01*
X1485900Y653860D02*
X1485900Y666940D01*
X1460500Y666940D02*
X1460500Y653860D01*
X1485900Y806260D02*
X1485900Y819340D01*
X1460500Y819340D02*
X1460500Y806260D01*
X1231900Y806260D02*
X1231900Y819340D01*
D23*
X1168400Y762000D03*
X1168400Y736600D03*
X1168400Y711200D03*
D22*
X1333500Y806260D02*
X1333500Y819340D01*
X1308100Y819340D02*
X1308100Y806260D01*
X1282700Y806260D02*
X1282700Y819340D01*
X1257300Y819340D02*
X1257300Y806260D01*
D23*
X1143000Y762000D03*
X1143000Y736600D03*
X1143000Y711200D03*
D24*
X114300Y320040D02*
X80010Y354330D01*
X114300Y88900D02*
X127000Y76200D01*
X215900Y76200D01*
X228600Y88900D01*
X228600Y325120D02*
X257810Y354330D01*
X114300Y320040D02*
X114300Y88900D01*
X228600Y88900D02*
X228600Y325120D01*
X257810Y354330D02*
X292100Y320040D01*
X292100Y101600D02*
X317500Y76200D01*
X393700Y76200D01*
X406400Y88900D01*
X406400Y325120D02*
X435610Y354330D01*
X292100Y320040D02*
X292100Y101600D01*
X406400Y88900D02*
X406400Y325120D01*
X435610Y354330D02*
X469900Y320040D01*
X469900Y88900D02*
X482600Y76200D01*
X571500Y76200D02*
X584200Y88900D01*
X584200Y325120D02*
X613410Y354330D01*
X469900Y320040D02*
X469900Y88900D01*
X482600Y76200D02*
X571500Y76200D01*
X584200Y88900D02*
X584200Y325120D01*
X613410Y313690D02*
X613410Y354330D01*
X647700Y279400D02*
X647700Y88900D01*
X660400Y76200D01*
X685800Y76200D02*
X698500Y88900D01*
X698500Y261620D02*
X791210Y354330D01*
X647700Y279400D02*
X613410Y313690D01*
X660400Y76200D02*
X685800Y76200D01*
X698500Y88900D02*
X698500Y261620D01*
X791210Y354330D02*
X825500Y320040D01*
X825500Y101600D01*
X838200Y88900D01*
X927100Y88900D02*
X939800Y101600D01*
X939800Y325120D02*
X969010Y354330D01*
X927100Y88900D02*
X838200Y88900D01*
X939800Y101600D02*
X939800Y325120D01*
X969010Y313690D02*
X969010Y354330D01*
X1003300Y279400D02*
X1003300Y88900D01*
X1016000Y76200D01*
X1003300Y279400D02*
X969010Y313690D01*
X1016000Y76200D02*
X1087120Y76200D01*
X370500Y533400D02*
X345100Y558800D01*
X215900Y558800D02*
X203200Y571500D01*
X192700Y561000D01*
X192700Y533400D01*
X215900Y558800D02*
X345100Y558800D01*
X215900Y584200D02*
X203200Y571500D01*
X215900Y584200D02*
X215900Y622300D01*
X393700Y622300D01*
X345100Y558800D02*
X522900Y558800D01*
X508000Y622300D02*
X558800Y673100D01*
X558800Y678300D01*
X1081700Y548300D02*
X1092200Y558800D01*
X1081700Y548300D02*
X1081700Y533400D01*
X1092200Y558800D02*
X929300Y558800D01*
X928200Y557700D01*
X903900Y533400D01*
X928200Y557700D02*
X750400Y557700D01*
X726100Y533400D01*
D25*
X1092200Y558800D02*
X1308100Y558800D01*
X1411900Y558800D01*
X1437300Y533400D01*
X1181100Y320040D02*
X1146810Y354330D01*
X1181100Y320040D02*
X1181100Y88900D01*
X1172210Y80010D01*
X1168400Y76200D01*
X1087120Y76200D01*
X1172210Y80010D02*
X1294130Y80010D01*
X1295400Y81280D01*
X1295400Y325120D01*
X1324610Y354330D01*
X1282700Y533400D02*
X1262040Y533400D01*
X1282700Y533400D02*
X1308100Y558800D01*
X1361520Y403940D02*
X1324610Y367030D01*
X1324610Y354330D01*
X1361520Y403940D02*
X1442960Y403940D01*
X1442960Y403620D01*
X1473200Y373380D01*
X1483360Y373380D01*
X1493520Y383540D01*
X1493520Y490220D01*
X1450340Y533400D01*
X1437300Y533400D01*
X548300Y533400D02*
X522900Y558800D01*
X1364235Y467360D02*
X1376935Y454660D01*
X1427480Y454660D01*
D24*
X1473200Y571500D02*
X1435100Y609600D01*
X1435100Y660400D01*
D25*
X1450340Y480060D02*
X1473200Y457200D01*
X1473200Y419100D01*
X1450340Y480060D02*
X1427480Y480060D01*
X1345185Y519515D02*
X1331300Y533400D01*
X1345185Y519515D02*
X1345185Y480060D01*
X1443990Y232410D02*
X1443990Y123990D01*
X1434300Y114300D01*
X1384300Y114300D02*
X1384300Y374650D01*
X1324610Y232410D02*
X1324610Y123990D01*
X1334300Y114300D01*
X1242060Y457200D02*
X1191515Y457200D01*
X1179323Y469393D01*
D24*
X1295400Y571500D02*
X1308100Y584200D01*
X1397000Y584200D01*
X1409700Y596900D01*
X1409700Y660400D01*
D25*
X1272540Y482600D02*
X1242060Y482600D01*
X1272540Y482600D02*
X1295400Y459740D01*
X1295400Y419100D01*
X1160273Y482093D02*
X1160273Y529167D01*
X1156040Y533400D01*
X1266190Y232410D02*
X1266190Y123990D01*
X1256500Y114300D01*
X1206500Y114300D02*
X1206500Y374650D01*
X1146810Y232410D02*
X1146810Y123990D01*
X1156500Y114300D01*
X1003300Y469900D02*
X996950Y469900D01*
X1003300Y469900D02*
X1016000Y457200D01*
X1066800Y457200D01*
D24*
X1117600Y571500D02*
X1130300Y584200D01*
X1282700Y584200D02*
X1295400Y596900D01*
X1371600Y596900D01*
X1384300Y609600D01*
X1384300Y660400D01*
X1282700Y584200D02*
X1130300Y584200D01*
D25*
X1097280Y482600D02*
X1066800Y482600D01*
X1097280Y482600D02*
X1117600Y462280D01*
X1117600Y419100D01*
X977900Y531200D02*
X975700Y533400D01*
X977900Y531200D02*
X977900Y482600D01*
D24*
X1088390Y232410D02*
X1088390Y123990D01*
X1078700Y114300D01*
X1028700Y114300D02*
X1028700Y374650D01*
X969010Y232410D02*
X969010Y123990D01*
X978700Y114300D01*
D25*
X831850Y457200D02*
X819150Y469900D01*
X831850Y457200D02*
X889000Y457200D01*
D24*
X939800Y571500D02*
X952500Y584200D01*
X1104900Y584200D02*
X1117600Y596900D01*
X1282700Y596900D02*
X1295400Y609600D01*
X1346200Y609600D01*
X1358900Y622300D01*
X1358900Y660400D01*
X1104900Y584200D02*
X952500Y584200D01*
X1117600Y596900D02*
X1282700Y596900D01*
D25*
X927100Y482600D02*
X889000Y482600D01*
X927100Y482600D02*
X939800Y469900D01*
X939800Y419100D01*
X800100Y531200D02*
X797900Y533400D01*
X800100Y531200D02*
X800100Y482600D01*
D24*
X910590Y232410D02*
X910590Y123990D01*
X900900Y114300D01*
X850900Y114300D02*
X850900Y374650D01*
X791210Y232410D02*
X791210Y123990D01*
X800900Y114300D01*
D25*
X654050Y457200D02*
X641350Y469900D01*
X654050Y457200D02*
X711200Y457200D01*
D24*
X762000Y571500D02*
X774700Y584200D01*
X939800Y584200D02*
X952500Y596900D01*
X1104900Y596900D02*
X1117600Y609600D01*
X1282700Y609600D01*
X1295400Y622300D01*
X1320800Y622300D01*
X1333500Y635000D01*
X1333500Y660400D01*
X939800Y584200D02*
X774700Y584200D01*
X952500Y596900D02*
X1104900Y596900D01*
D25*
X749300Y482600D02*
X711200Y482600D01*
X749300Y482600D02*
X762000Y469900D01*
X762000Y419100D01*
X622300Y531200D02*
X620100Y533400D01*
X622300Y531200D02*
X622300Y482600D01*
D24*
X732790Y232410D02*
X732790Y123990D01*
X723100Y114300D01*
X673100Y114300D02*
X673100Y374650D01*
X613410Y232410D02*
X613410Y123990D01*
X623100Y114300D01*
D25*
X476250Y457200D02*
X463550Y469900D01*
X476250Y457200D02*
X533400Y457200D01*
D24*
X584200Y571500D02*
X609600Y596900D01*
X927100Y596900D01*
X939800Y609600D01*
X1092200Y609600D01*
X1104900Y622300D01*
X1282700Y622300D01*
X1308100Y647700D02*
X1308100Y660400D01*
X1308100Y647700D02*
X1282700Y622300D01*
D25*
X571500Y482600D02*
X533400Y482600D01*
X571500Y482600D02*
X584200Y469900D01*
X584200Y419100D01*
X444500Y531200D02*
X442300Y533400D01*
X444500Y531200D02*
X444500Y482600D01*
D24*
X554990Y232410D02*
X554990Y123990D01*
X545300Y114300D01*
X495300Y114300D02*
X495300Y374650D01*
X435610Y232410D02*
X435610Y123990D01*
X445300Y114300D01*
D25*
X292100Y469900D02*
X285750Y469900D01*
X292100Y469900D02*
X304800Y457200D01*
X355600Y457200D01*
D24*
X406400Y571500D02*
X419100Y584200D01*
X571500Y584200D02*
X596900Y609600D01*
X914400Y609600D01*
X927100Y622300D01*
X1079500Y622300D01*
X1092200Y635000D01*
X1270000Y635000D01*
X1282700Y647700D01*
X1282700Y660400D01*
X571500Y584200D02*
X419100Y584200D01*
D25*
X381000Y482600D02*
X355600Y482600D01*
X381000Y482600D02*
X406400Y457200D01*
X406400Y419100D01*
X266700Y531200D02*
X264500Y533400D01*
X266700Y531200D02*
X266700Y482600D01*
D24*
X377190Y232410D02*
X377190Y123990D01*
X367500Y114300D01*
X317500Y114300D02*
X317500Y374650D01*
X257810Y232410D02*
X257810Y123990D01*
X267500Y114300D01*
D25*
X177800Y457200D02*
X120650Y457200D01*
X107950Y469900D01*
D24*
X228600Y571500D02*
X241300Y584200D01*
X381000Y584200D01*
X393700Y596900D01*
X558800Y596900D01*
X584200Y622300D01*
X914400Y622300D01*
X974852Y682752D01*
X1234948Y682752D01*
X1257300Y660400D01*
D25*
X203200Y482600D02*
X177800Y482600D01*
X228600Y457200D02*
X228600Y419100D01*
X228600Y457200D02*
X203200Y482600D01*
X83900Y487600D02*
X83900Y530600D01*
X83900Y487600D02*
X88900Y482600D01*
X83900Y530600D02*
X86700Y533400D01*
D24*
X199390Y123990D02*
X189700Y114300D01*
X199390Y123990D02*
X199390Y232410D01*
X139700Y114300D02*
X139700Y374650D01*
X80010Y232410D02*
X80010Y123990D01*
X89700Y114300D01*
X1341919Y1104900D02*
X1371600Y1104900D01*
X1341919Y1104900D02*
X1302177Y1144642D01*
X1447800Y1117600D02*
X1454577Y1124377D01*
X1454577Y1144642D01*
X1453320Y1204846D02*
X1413745Y1244420D01*
X1453320Y1204846D02*
X1453320Y1145899D01*
X1454577Y1144642D01*
X1435100Y977900D02*
X1409700Y977900D01*
X1435100Y977900D02*
X1447800Y965200D01*
X1435100Y850900D02*
X1308100Y977900D01*
X1435100Y850900D02*
X1435100Y812800D01*
X1295400Y965200D02*
X1308100Y977900D01*
X1333500Y977900D01*
X1193800Y1104900D02*
X1164119Y1104900D01*
X1124377Y1144642D01*
X1276777Y1144642D02*
X1276777Y1124377D01*
X1270000Y1117600D01*
X1275520Y1207386D02*
X1241025Y1241880D01*
X1275520Y1207386D02*
X1275520Y1145899D01*
X1276777Y1144642D01*
X1257300Y977900D02*
X1231900Y977900D01*
X1257300Y977900D02*
X1270000Y965200D01*
X1193800Y939800D02*
X1155700Y977900D01*
X1409700Y839354D02*
X1409700Y812800D01*
X1309254Y939800D02*
X1193800Y939800D01*
X1309254Y939800D02*
X1409700Y839354D01*
X1130300Y977900D02*
X1117600Y965200D01*
X1130300Y977900D02*
X1155700Y977900D01*
X1016000Y1104900D02*
X986319Y1104900D01*
X946577Y1144642D01*
X1092200Y1137865D02*
X1092200Y1117600D01*
X1092200Y1137865D02*
X1098977Y1144642D01*
X1097720Y1207386D02*
X1063225Y1241880D01*
X1097720Y1207386D02*
X1097720Y1145899D01*
X1098977Y1144642D01*
X838200Y1104900D02*
X808519Y1104900D01*
X768777Y1144642D01*
X914400Y1144642D02*
X914400Y1117600D01*
X914400Y1144642D02*
X921177Y1144642D01*
X919920Y1207386D02*
X885425Y1241880D01*
X919920Y1207386D02*
X919920Y1145899D01*
X921177Y1144642D01*
X660400Y1104900D02*
X630719Y1104900D01*
X590977Y1144642D01*
X743377Y1144642D02*
X743377Y1124377D01*
X736600Y1117600D01*
X742120Y1207386D02*
X707625Y1241880D01*
X742120Y1207386D02*
X742120Y1145899D01*
X743377Y1144642D01*
X596900Y977900D02*
X584200Y965200D01*
X596900Y977900D02*
X622300Y977900D01*
X482600Y1104900D02*
X452919Y1104900D01*
X413177Y1144642D01*
X558800Y1137865D02*
X558800Y1117600D01*
X558800Y1137865D02*
X565577Y1144642D01*
X561529Y1148690D02*
X561529Y1149921D01*
X561529Y1148690D02*
X565577Y1144642D01*
X561529Y1149921D02*
X529825Y1181625D01*
X529825Y1241880D01*
X520700Y977900D02*
X546100Y977900D01*
X558800Y965200D01*
X419100Y977900D02*
X406400Y965200D01*
X419100Y977900D02*
X444500Y977900D01*
X304800Y1104900D02*
X275119Y1104900D01*
X235377Y1144642D01*
X381000Y1137865D02*
X381000Y1117600D01*
X381000Y1137865D02*
X387777Y1144642D01*
X386520Y1207386D02*
X352025Y1241880D01*
X386520Y1207386D02*
X386520Y1145899D01*
X387777Y1144642D01*
X368300Y977900D02*
X342900Y977900D01*
X368300Y977900D02*
X381000Y965200D01*
X241300Y977900D02*
X228600Y965200D01*
X241300Y977900D02*
X266700Y977900D01*
X114300Y1104900D02*
X97319Y1104900D01*
X57577Y1144642D01*
X190500Y1125165D02*
X209977Y1144642D01*
X190500Y1125165D02*
X190500Y1117600D01*
X208720Y1207386D02*
X174225Y1241880D01*
X208720Y1207386D02*
X208720Y1145899D01*
X209977Y1144642D01*
X177800Y977900D02*
X152400Y977900D01*
X177800Y977900D02*
X190500Y965200D01*
X50800Y977900D02*
X38100Y965200D01*
X50800Y977900D02*
X76200Y977900D01*
D25*
X66040Y53340D02*
X1460500Y53340D01*
X1341120Y718820D02*
X1257300Y802640D01*
X1257300Y812800D01*
X38100Y965200D02*
X38100Y81280D01*
X66040Y53340D01*
X1460500Y53340D02*
X1521460Y114300D01*
X1521460Y669980D01*
X1472620Y718820D01*
X1341120Y718820D01*
D24*
X393700Y876300D02*
X355600Y838200D01*
X355600Y774700D02*
X342900Y762000D01*
X355600Y774700D02*
X355600Y838200D01*
X342900Y762000D02*
X342900Y685800D01*
X342900Y762000D02*
X368300Y762000D01*
X434000Y726100D02*
X434000Y812800D01*
X419100Y711200D02*
X381000Y711200D01*
X368300Y698500D01*
X368300Y685800D01*
X419100Y711200D02*
X434000Y726100D01*
X393700Y685800D02*
X393700Y647700D01*
X469900Y736600D02*
X469900Y749300D01*
X508000Y749300D01*
X558800Y807600D02*
X520700Y845700D01*
X520700Y876300D01*
X495300Y850900D01*
X393700Y850900D02*
X381000Y838200D01*
X381000Y774700D02*
X393700Y762000D01*
X393700Y850900D02*
X495300Y850900D01*
X381000Y838200D02*
X381000Y774700D01*
X558800Y792600D02*
X558800Y693300D01*
X1371600Y1041400D02*
X1409700Y1003300D01*
X1371600Y1041400D02*
X1371600Y1079500D01*
X1371600Y1041400D02*
X1333500Y1003300D01*
X1231900Y1003300D02*
X1193800Y1041400D01*
X1193800Y1079500D01*
X1193800Y1041400D02*
X1155700Y1003300D01*
X1054100Y1003300D02*
X1016000Y1041400D01*
X1016000Y1079500D01*
X1016000Y1041400D02*
X977900Y1003300D01*
X876300Y1003300D02*
X838200Y1041400D01*
X838200Y1079500D01*
X838200Y1041400D02*
X800100Y1003300D01*
X698500Y1003300D02*
X660400Y1041400D01*
X660400Y1079500D01*
X660400Y1041400D02*
X622300Y1003300D01*
X520700Y1003300D02*
X482600Y1041400D01*
X482600Y1079500D01*
X482600Y1041400D02*
X444500Y1003300D01*
X342900Y1003300D02*
X304800Y1041400D01*
X304800Y1079500D01*
X304800Y1041400D02*
X266700Y1003300D01*
X152400Y1003300D02*
X114300Y1041400D01*
X114300Y1079500D01*
X114300Y1041400D02*
X76200Y1003300D01*
X520700Y1003300D02*
X622300Y1003300D01*
X698500Y1003300D02*
X800100Y1003300D01*
X876300Y1003300D02*
X977900Y1003300D01*
X266700Y1003300D02*
X152400Y1003300D01*
X342900Y1003300D02*
X444500Y1003300D01*
X1054100Y1003300D02*
X1155700Y1003300D01*
X1231900Y1003300D02*
X1333500Y1003300D01*
D25*
X328000Y812800D02*
X315300Y825500D01*
X152400Y825500D01*
X114300Y787400D01*
X114300Y774300D01*
X124225Y1241880D02*
X149625Y1267280D01*
X276625Y1267280D02*
X302025Y1241880D01*
X276625Y1267280D02*
X149625Y1267280D01*
X302025Y1241880D02*
X327425Y1267280D01*
X454025Y1267280D01*
X479425Y1241880D01*
X479825Y1241880D01*
X505225Y1267280D01*
X632225Y1267280D02*
X657625Y1241880D01*
X632225Y1267280D02*
X505225Y1267280D01*
X657625Y1241880D02*
X683025Y1267280D01*
X810025Y1267280D02*
X835425Y1241880D01*
X810025Y1267280D02*
X683025Y1267280D01*
X835425Y1242280D02*
X835425Y1241880D01*
X835425Y1242280D02*
X860425Y1267280D01*
X987825Y1267280D02*
X1013225Y1241880D01*
X987825Y1267280D02*
X860425Y1267280D01*
X1013225Y1242280D02*
X1013225Y1241880D01*
X1013225Y1242280D02*
X1038225Y1267280D01*
X1165625Y1267280D02*
X1191025Y1241880D01*
X1165625Y1267280D02*
X1038225Y1267280D01*
X1191025Y1242280D02*
X1191025Y1241880D01*
X1191025Y1242280D02*
X1216025Y1267280D01*
X1343025Y1267280D01*
X1363745Y1246560D01*
X1363745Y1244420D01*
X1363745Y1163998D01*
X1391077Y1136666D01*
X1391077Y1079500D01*
X1371600Y1079500D01*
X91567Y454533D02*
X88900Y457200D01*
X91567Y454533D02*
X127000Y419100D01*
X190500Y419100D02*
X215900Y393700D01*
X241300Y393700D01*
X266700Y419100D01*
X266700Y457200D01*
X190500Y419100D02*
X127000Y419100D01*
X266700Y419100D02*
X342900Y419100D01*
X368300Y393700D01*
X431800Y393700D01*
X444500Y406400D01*
X444500Y419100D01*
X444500Y457200D01*
X444500Y419100D02*
X533400Y419100D01*
X558800Y393700D02*
X609600Y393700D01*
X622300Y406400D01*
X622300Y419100D01*
X622300Y457200D01*
X558800Y393700D02*
X533400Y419100D01*
X622300Y419100D02*
X723900Y419100D01*
X749300Y393700D01*
X787400Y393700D01*
X800100Y406400D01*
X800100Y419100D01*
X800100Y457200D01*
X800100Y419100D02*
X901700Y419100D01*
X927100Y393700D01*
X965200Y393700D01*
X977900Y406400D01*
X977900Y419100D01*
X977900Y457200D01*
X977900Y419100D02*
X1079500Y419100D01*
X1104900Y393700D01*
X1143000Y393700D01*
X1155700Y406400D01*
X1155700Y419100D01*
X1155700Y452120D01*
X1160273Y456693D01*
X1155700Y419100D02*
X1259840Y419100D01*
X1287780Y391160D01*
X1318260Y391160D01*
X1345185Y418085D01*
X1345185Y454660D01*
X1054100Y1003300D02*
X1038300Y1003300D01*
X1025000Y990000D01*
X1025000Y955000D01*
X1070000Y910000D01*
X1155000Y910000D01*
X1181100Y883900D01*
X1181100Y812800D01*
X152400Y825500D02*
X77978Y825500D01*
X61722Y809244D01*
X61722Y474853D01*
X82042Y454533D01*
X91567Y454533D01*
M02*
